<svg width="24" height="9" viewBox="0 0 24 9" fill="none" xmlns="http://www.w3.org/2000/svg">
<path d="M0.81218 0.928087C0.821513 0.918753 1.09685 0.914086 1.63818 0.914086L2.45018 0.928087L2.46418 3.91009V6.90609H6.17418L6.18818 7.64809C6.18818 7.72276 6.18818 7.82076 6.18818 7.94209C6.19751 8.06342 6.20218 8.14276 6.20218 8.18009L6.18818 8.40409C6.16018 8.43209 5.25485 8.44609 3.47218 8.44609H0.78418V4.69409C0.78418 2.20209 0.793513 0.946753 0.81218 0.928087ZM8.23218 5.53409C8.23218 5.50609 8.53085 5.49209 9.12818 5.49209H10.0242L10.0662 5.63209C10.1035 5.74409 10.1922 5.89809 10.3322 6.09409C10.4722 6.28076 10.5982 6.42076 10.7102 6.51409C11.0835 6.82209 11.5129 6.99009 11.9982 7.01809H12.1522C12.6002 7.01809 13.0015 6.90609 13.3562 6.68209C13.7109 6.45809 13.9815 6.14542 14.1682 5.74409L14.2802 5.49209H16.0442C15.8949 6.17342 15.5915 6.76609 15.1342 7.27009C14.6862 7.76476 14.1449 8.11942 13.5102 8.33409C13.0902 8.48342 12.6375 8.55809 12.1522 8.55809C11.2935 8.55809 10.5049 8.32476 9.78618 7.85809C9.25418 7.49409 8.84351 7.01809 8.55418 6.43009C8.49818 6.32742 8.42818 6.16409 8.34418 5.94009C8.26951 5.71609 8.23218 5.58076 8.23218 5.53409ZM11.3542 0.872087C11.6062 0.82542 11.8815 0.802087 12.1802 0.802087C12.5442 0.802087 12.8615 0.834753 13.1322 0.900086C13.4402 0.974753 13.6829 1.05409 13.8602 1.13809C14.0469 1.22209 14.2615 1.35742 14.5042 1.54409C15.0362 1.92676 15.4329 2.38409 15.6942 2.91609C15.8995 3.32676 16.0022 3.61609 16.0022 3.78409C16.0022 3.82142 15.7129 3.84009 15.1342 3.84009H14.2522L14.1122 3.54609C14.0002 3.32209 13.8649 3.13076 13.7062 2.97209C13.2769 2.54276 12.7542 2.32809 12.1382 2.32809C11.7275 2.32809 11.3402 2.43542 10.9762 2.65009C10.6215 2.85542 10.3509 3.14942 10.1642 3.53209L10.0102 3.84009H9.11418L8.23218 3.85409L8.26018 3.74209C8.43751 3.02342 8.81085 2.39809 9.38018 1.86609C9.95885 1.32476 10.6169 0.99342 11.3542 0.872087ZM18.0578 2.28609V0.788086L19.9058 0.802087C21.1471 0.81142 21.8658 0.844087 22.0618 0.900086C23.0698 1.17076 23.6951 1.77276 23.9378 2.70609C23.9751 2.85542 23.9938 3.09342 23.9938 3.42009C23.9938 3.73742 23.9751 3.97076 23.9378 4.12009C23.7885 4.67076 23.4898 5.10942 23.0418 5.43609C22.5938 5.76276 22.0245 5.95876 21.3338 6.02409C20.8578 6.05209 20.5218 6.06609 20.3258 6.06609H19.7378V8.29209H18.0578V4.58209H19.6118C20.4705 4.58209 21.0118 4.57276 21.2358 4.55409C21.4691 4.52609 21.6651 4.46542 21.8238 4.37209C22.1598 4.16676 22.3278 3.84942 22.3278 3.42009C22.3278 2.93476 22.1318 2.60809 21.7398 2.44009C21.5811 2.37476 21.3758 2.33276 21.1238 2.31409C20.8718 2.29542 20.3491 2.28609 19.5558 2.28609H18.0578Z" fill="white"/>
</svg>
